<svg width="143" height="35" viewBox="0 0 143 35" fill="none" xmlns="http://www.w3.org/2000/svg">
<path id="Ashu-E-Store" d="M3.504 27.824C2.736 27.6 2.2 27.376 1.896 27.152C1.608 26.928 1.464 26.648 1.464 26.312C1.464 26.056 1.536 25.696 1.68 25.232C1.824 24.768 2.032 24.224 2.304 23.6C2.592 22.96 2.928 22.256 3.312 21.488C3.712 20.72 4.16 19.896 4.656 19.016C4.24 19 3.864 18.992 3.528 18.992C3.208 18.976 2.944 18.968 2.736 18.968C2.832 18.728 3.104 18.52 3.552 18.344C4 18.168 4.592 18.016 5.328 17.888C5.952 16.848 6.616 15.856 7.32 14.912C8.04 13.968 8.76 13.104 9.48 12.32C10.2 11.52 10.92 10.824 11.64 10.232C12.36 9.624 13.048 9.144 13.704 8.792C13.72 8.68 13.728 8.584 13.728 8.504C13.744 8.424 13.752 8.368 13.752 8.336C13.976 8.336 14.272 8.392 14.64 8.504C15.024 8.616 15.392 8.752 15.744 8.912C16.112 9.072 16.432 9.24 16.704 9.416C16.992 9.576 17.152 9.712 17.184 9.824C16.656 10.752 16.136 12.144 15.624 14C15.112 15.84 14.688 18.048 14.352 20.624C14.272 21.264 14.2 21.992 14.136 22.808C14.088 23.624 14.064 24.536 14.064 25.544C14.064 25.896 14.064 26.256 14.064 26.624C14.064 26.992 14.08 27.376 14.112 27.776C14.08 27.792 14.048 27.8 14.016 27.8C13.984 27.8 13.92 27.8 13.824 27.8C13.6 27.8 13.336 27.76 13.032 27.68C12.744 27.616 12.456 27.528 12.168 27.416C11.896 27.32 11.656 27.208 11.448 27.08C11.256 26.952 11.136 26.84 11.088 26.744C11.072 26.536 11.064 26.328 11.064 26.12C11.064 25.928 11.064 25.72 11.064 25.496C11.064 24.504 11.096 23.496 11.16 22.472C11.24 21.448 11.368 20.392 11.544 19.304C11.32 19.288 11.024 19.272 10.656 19.256C10.288 19.224 9.872 19.2 9.408 19.184C8.96 19.168 8.472 19.152 7.944 19.136C7.432 19.104 6.928 19.08 6.432 19.064C6.048 19.784 5.688 20.504 5.352 21.224C5.016 21.928 4.728 22.64 4.488 23.36C4.216 24.128 3.992 24.896 3.816 25.664C3.656 26.432 3.552 27.152 3.504 27.824ZM12.768 13.4C12.832 13.176 12.904 12.872 12.984 12.488C13.08 12.088 13.168 11.672 13.248 11.24C12.848 11.384 12.4 11.648 11.904 12.032C11.424 12.416 10.92 12.896 10.392 13.472C9.88 14.032 9.352 14.672 8.808 15.392C8.28 16.096 7.768 16.848 7.272 17.648C8.616 17.536 10.144 17.464 11.856 17.432C11.984 16.76 12.12 16.096 12.264 15.44C12.424 14.768 12.592 14.088 12.768 13.4ZM25.8424 16.448C25.8264 16.752 25.7704 17.072 25.6744 17.408C25.5944 17.728 25.4904 18.024 25.3624 18.296C25.2344 18.552 25.0984 18.768 24.9544 18.944C24.8104 19.12 24.6744 19.208 24.5464 19.208C24.3704 19.192 24.2664 19.072 24.2344 18.848C24.2344 18.8 24.2504 18.728 24.2824 18.632C24.3304 18.52 24.3784 18.4 24.4264 18.272C24.4744 18.144 24.5144 18.016 24.5464 17.888C24.5944 17.76 24.6184 17.648 24.6184 17.552C24.6184 17.328 24.5624 17.144 24.4504 17C24.3544 16.84 24.2184 16.76 24.0424 16.76C23.4024 16.76 22.9144 17.16 22.5784 17.96C22.2424 18.76 22.0744 19.936 22.0744 21.488C22.0744 21.648 22.0824 21.744 22.0984 21.776C22.4344 21.76 22.7304 21.752 22.9864 21.752C23.2584 21.736 23.5224 21.728 23.7784 21.728C23.7944 21.76 23.8024 21.824 23.8024 21.92C23.8024 22.064 23.7704 22.168 23.7064 22.232C23.3384 22.312 23.0424 22.384 22.8184 22.448C22.6104 22.496 22.4504 22.544 22.3384 22.592C22.2264 22.64 22.1544 22.696 22.1224 22.76C22.1064 22.808 22.0984 22.88 22.0984 22.976C22.0984 23.104 22.0984 23.232 22.0984 23.36C22.1144 23.488 22.1224 23.648 22.1224 23.84C22.1224 25.184 21.7544 26.264 21.0184 27.08C20.2984 27.896 19.2904 28.368 17.9944 28.496C17.7704 28.48 17.5384 28.416 17.2984 28.304C17.0584 28.192 16.8264 28.048 16.6024 27.872C16.3944 27.696 16.2104 27.496 16.0504 27.272C15.8904 27.064 15.7784 26.848 15.7144 26.624C15.7144 26.016 15.8424 25.44 16.0984 24.896C16.3544 24.336 16.6984 23.848 17.1304 23.432C17.5784 23 18.0984 22.656 18.6904 22.4C19.2984 22.128 19.9544 21.968 20.6584 21.92C20.6584 21.52 20.6184 21.128 20.5384 20.744C20.4584 20.36 20.3704 19.992 20.2744 19.64C20.1944 19.272 20.1144 18.92 20.0344 18.584C19.9544 18.232 19.9144 17.888 19.9144 17.552C19.9144 17.12 20.0024 16.696 20.1784 16.28C20.3544 15.848 20.5864 15.456 20.8744 15.104C21.1624 14.736 21.4984 14.424 21.8824 14.168C22.2664 13.912 22.6664 13.736 23.0824 13.64C23.2584 13.688 23.4904 13.832 23.7784 14.072C24.0824 14.296 24.3784 14.552 24.6664 14.84C24.9544 15.128 25.2104 15.424 25.4344 15.728C25.6584 16.016 25.7944 16.256 25.8424 16.448ZM17.9224 27.392C18.3064 27.232 18.6664 27 19.0024 26.696C19.3544 26.392 19.6584 26.048 19.9144 25.664C20.1704 25.28 20.3704 24.872 20.5144 24.44C20.6744 24.008 20.7544 23.584 20.7544 23.168C20.4344 23.216 20.0824 23.368 19.6984 23.624C19.3144 23.864 18.9544 24.16 18.6184 24.512C18.2824 24.848 18.0024 25.2 17.7784 25.568C17.5544 25.936 17.4424 26.256 17.4424 26.528C17.4424 26.88 17.6024 27.168 17.9224 27.392ZM25.8353 25.592C25.8353 25.032 25.8913 24.376 26.0033 23.624C26.1153 22.856 26.2753 22.04 26.4833 21.176C26.7073 20.312 26.9633 19.408 27.2513 18.464C27.5553 17.52 27.8913 16.576 28.2593 15.632C28.5793 14.784 28.9473 13.928 29.3633 13.064C29.7953 12.2 30.2593 11.352 30.7553 10.52C31.2513 9.688 31.7633 8.896 32.2913 8.144C32.8353 7.392 33.3793 6.704 33.9233 6.08C34.1793 6.08 34.4513 6.112 34.7393 6.176C35.0433 6.24 35.3313 6.328 35.6033 6.44C35.8913 6.536 36.1473 6.656 36.3713 6.8C36.6113 6.944 36.8033 7.088 36.9473 7.232C35.7473 8.464 34.6673 9.712 33.7073 10.976C32.7473 12.224 31.9873 13.4 31.4273 14.504C31.1233 15.112 30.8433 15.68 30.5872 16.208C30.3473 16.736 30.1233 17.264 29.9153 17.792C29.7073 18.304 29.5153 18.824 29.3393 19.352C29.1793 19.864 29.0273 20.408 28.8833 20.984C31.9553 17.064 34.2353 15.104 35.7233 15.104C36.1393 15.104 36.5873 15.24 37.0673 15.512C37.5473 15.784 37.9713 16.152 38.3393 16.616C37.8433 17.16 37.3313 17.816 36.8033 18.584C36.2753 19.352 35.7873 20.128 35.3393 20.912C34.9073 21.68 34.5473 22.4 34.2593 23.072C33.9873 23.728 33.8513 24.216 33.8513 24.536C33.8513 24.696 33.8753 24.808 33.9233 24.872C33.9713 24.92 34.0753 24.944 34.2353 24.944C34.4753 24.944 34.6673 24.912 34.8113 24.848C34.9553 24.784 35.0433 24.752 35.0753 24.752C35.1553 24.88 35.2033 24.968 35.2193 25.016C35.2353 25.064 35.2433 25.104 35.2433 25.136C35.2433 25.2 35.1473 25.296 34.9553 25.424C34.7633 25.536 34.5313 25.656 34.2593 25.784C34.0033 25.896 33.7473 26 33.4913 26.096C33.2353 26.192 33.0433 26.24 32.9153 26.24C32.7553 26.24 32.5953 26.192 32.4353 26.096C32.2753 26.016 32.1313 25.904 32.0033 25.76C31.8913 25.616 31.7953 25.456 31.7153 25.28C31.6513 25.104 31.6193 24.92 31.6193 24.728C31.6193 24.488 31.6833 24.136 31.8113 23.672C31.9553 23.192 32.1473 22.64 32.3873 22.016C32.6273 21.376 32.9153 20.68 33.2513 19.928C33.5873 19.176 33.9473 18.408 34.3313 17.624C34.3313 17.56 34.2993 17.528 34.2353 17.528C34.1873 17.528 34.0593 17.592 33.8513 17.72C33.6593 17.848 33.4753 17.976 33.2993 18.104C32.7233 18.536 32.1393 19.072 31.5473 19.712C30.9713 20.336 30.4033 21.024 29.8433 21.776C29.2993 22.528 28.7793 23.328 28.2833 24.176C27.8033 25.008 27.3873 25.848 27.0353 26.696C26.9873 26.808 26.9153 26.912 26.8193 27.008C26.7233 27.104 26.6433 27.152 26.5793 27.152C26.5313 27.152 26.4593 27.096 26.3633 26.984C26.2833 26.872 26.2033 26.728 26.1233 26.552C26.0593 26.392 25.9953 26.224 25.9313 26.048C25.8673 25.872 25.8353 25.72 25.8353 25.592ZM44.7857 25.472C44.4817 25.216 44.2737 24.896 44.1617 24.512C44.0657 24.128 44.0177 23.8 44.0177 23.528C44.0177 23.192 44.0577 22.904 44.1377 22.664C44.0737 22.664 43.9297 22.792 43.7057 23.048C43.4817 23.304 43.2337 23.608 42.9617 23.96C42.7057 24.312 42.4497 24.656 42.1937 24.992C41.9377 25.328 41.7457 25.576 41.6177 25.736C41.4097 25.96 41.2097 26.136 41.0177 26.264C40.8417 26.392 40.6977 26.464 40.5857 26.48C40.3297 26.464 40.0577 26.408 39.7697 26.312C39.4977 26.232 39.2337 26.112 38.9777 25.952C38.7377 25.792 38.5217 25.6 38.3297 25.376C38.1537 25.152 38.0337 24.896 37.9697 24.608C37.9697 24.16 37.9777 23.792 37.9937 23.504C38.0257 23.216 38.0817 22.904 38.1617 22.568C38.3057 21.96 38.5137 21.272 38.7857 20.504C39.0737 19.736 39.4017 18.984 39.7697 18.248C40.1377 17.496 40.5457 16.8 40.9937 16.16C41.4577 15.504 41.9457 14.992 42.4577 14.624C42.6017 14.624 42.7697 14.64 42.9617 14.672C43.1537 14.688 43.3457 14.728 43.5377 14.792C43.7457 14.856 43.9377 14.936 44.1137 15.032C44.3057 15.112 44.4657 15.224 44.5937 15.368C44.4497 15.528 44.0817 16.064 43.4897 16.976C42.9137 17.888 42.2657 19.2 41.5457 20.912C41.4657 21.088 41.3697 21.344 41.2577 21.68C41.1457 22.016 41.0337 22.368 40.9217 22.736C40.8097 23.104 40.7137 23.464 40.6337 23.816C40.5697 24.168 40.5377 24.448 40.5377 24.656C40.5377 24.784 40.5537 24.88 40.5857 24.944C40.6337 25.008 40.6737 25.056 40.7057 25.088C40.9457 24.992 41.2497 24.728 41.6177 24.296C41.9857 23.864 42.4977 23.2 43.1537 22.304C43.3137 22.08 43.4977 21.824 43.7057 21.536C43.9297 21.248 44.1537 20.944 44.3777 20.624C44.6017 20.288 44.8097 19.944 45.0017 19.592C45.2097 19.24 45.3777 18.888 45.5057 18.536C45.5697 18.344 45.6497 18.12 45.7457 17.864C45.8577 17.592 45.9857 17.312 46.1297 17.024C46.2897 16.736 46.4657 16.448 46.6577 16.16C46.8657 15.856 47.1057 15.576 47.3777 15.32C47.5857 15.32 47.8097 15.344 48.0497 15.392C48.2897 15.44 48.5137 15.504 48.7217 15.584C48.9457 15.648 49.1377 15.728 49.2977 15.824C49.4577 15.904 49.5777 15.992 49.6577 16.088C49.3697 16.792 49.0497 17.488 48.6977 18.176C48.3457 18.864 48.0177 19.544 47.7137 20.216C47.4097 20.872 47.1537 21.528 46.9457 22.184C46.7377 22.84 46.6337 23.48 46.6337 24.104C46.6337 24.44 46.6577 24.736 46.7057 24.992C46.7697 25.232 46.8337 25.44 46.8977 25.616C46.9617 25.776 47.0177 25.912 47.0657 26.024C47.1297 26.136 47.1617 26.232 47.1617 26.312C47.1617 26.328 47.1457 26.352 47.1137 26.384C47.0977 26.4 47.0817 26.408 47.0657 26.408C46.9537 26.408 46.8097 26.384 46.6337 26.336C46.4577 26.288 46.2577 26.216 46.0337 26.12C45.8257 26.04 45.6097 25.944 45.3857 25.832C45.1777 25.72 44.9777 25.6 44.7857 25.472ZM52.6851 21.536C52.1891 21.536 51.7891 21.4 51.4851 21.128C51.1971 20.84 51.0531 20.448 51.0531 19.952C51.0531 19.872 51.0691 19.752 51.1011 19.592C51.1331 19.432 51.1651 19.312 51.1971 19.232C51.4691 19.28 51.7251 19.312 51.9651 19.328C52.2051 19.328 52.5171 19.328 52.9011 19.328C53.7171 19.328 54.4771 19.304 55.1811 19.256C55.9011 19.208 56.5491 19.152 57.1251 19.088C57.7011 19.024 58.1971 18.968 58.6131 18.92C59.0291 18.872 59.3491 18.848 59.5731 18.848C59.8771 18.848 60.1411 19.032 60.3651 19.4C60.6051 19.768 60.7811 20.296 60.8931 20.984C60.4931 20.936 60.1651 20.904 59.9091 20.888C59.6531 20.872 59.4291 20.864 59.2371 20.864C58.5491 20.864 57.9091 20.904 57.3171 20.984C56.7251 21.048 56.1651 21.12 55.6371 21.2C55.1091 21.28 54.6051 21.36 54.1251 21.44C53.6451 21.504 53.1651 21.536 52.6851 21.536ZM72.5469 15.776C73.0749 15.776 73.4829 15.92 73.7709 16.208C74.0749 16.496 74.2269 16.896 74.2269 17.408C74.2269 17.536 74.2109 17.672 74.1789 17.816C74.1629 17.944 74.1389 18.056 74.1069 18.152C73.8989 18.12 73.6669 18.096 73.4109 18.08C73.1549 18.048 72.8509 18.032 72.4989 18.032C71.8109 18.032 71.1149 18.096 70.4109 18.224C69.7069 18.336 69.0349 18.432 68.3949 18.512C68.0269 19.36 67.6909 20.184 67.3869 20.984C67.0829 21.768 66.8189 22.488 66.5949 23.144C66.3869 23.8 66.2189 24.368 66.0909 24.848C65.9789 25.328 65.9149 25.688 65.8989 25.928C67.1949 25.656 68.4989 25.424 69.8109 25.232C71.1389 25.04 72.5309 24.896 73.9869 24.8C74.1629 25.072 74.3069 25.368 74.4189 25.688C74.5469 26.008 74.6109 26.352 74.6109 26.72C74.6109 26.816 74.6109 26.92 74.6109 27.032C74.6109 27.144 74.5949 27.256 74.5629 27.368C74.1149 27.352 73.6429 27.336 73.1469 27.32C72.6509 27.32 72.0029 27.32 71.2029 27.32C70.6749 27.32 70.1709 27.328 69.6909 27.344C69.2269 27.376 68.7549 27.416 68.2749 27.464C67.7949 27.512 67.2829 27.576 66.7389 27.656C66.2109 27.736 65.6109 27.832 64.9389 27.944C64.2029 27.656 63.4909 26.952 62.8029 25.832C63.0749 25.256 63.4509 24.384 63.9309 23.216C64.4269 22.032 65.0509 20.456 65.8029 18.488C65.0829 18.264 64.6109 17.864 64.3869 17.288C64.4669 17.208 64.6989 17.112 65.0829 17C65.4669 16.872 65.9389 16.744 66.4989 16.616C66.7389 15.992 66.9389 15.448 67.0989 14.984C67.2749 14.52 67.4269 14.088 67.5549 13.688C67.6829 13.272 67.7949 12.872 67.8909 12.488C68.0029 12.088 68.1069 11.656 68.2029 11.192C67.6429 11.16 67.2029 11.008 66.8829 10.736C66.5629 10.448 66.4029 10.08 66.4029 9.632C66.4029 9.504 66.4189 9.352 66.4509 9.176C66.4989 9 66.5469 8.848 66.5949 8.72C66.9149 8.768 67.2189 8.8 67.5069 8.816C67.8109 8.832 68.2029 8.84 68.6829 8.84C69.6909 8.84 70.6349 8.816 71.5149 8.768C72.3949 8.704 73.1869 8.64 73.8909 8.576C74.6109 8.512 75.2269 8.456 75.7389 8.408C76.2509 8.344 76.6429 8.312 76.9149 8.312C77.2829 8.312 77.6109 8.504 77.8989 8.888C78.1869 9.272 78.4029 9.816 78.5469 10.52C78.0509 10.472 77.6429 10.44 77.3229 10.424C77.0189 10.408 76.7469 10.4 76.5069 10.4C75.6269 10.4 74.8189 10.448 74.0829 10.544C73.3629 10.624 72.6669 10.712 71.9949 10.808C71.8989 10.952 71.7869 11.136 71.6589 11.36C71.5469 11.584 71.3949 11.896 71.2029 12.296C71.0109 12.696 70.7709 13.2 70.4829 13.808C70.2109 14.416 69.8749 15.176 69.4749 16.088C70.0829 15.992 70.6509 15.92 71.1789 15.872C71.7229 15.808 72.1789 15.776 72.5469 15.776ZM79.7319 21.536C79.2359 21.536 78.8359 21.4 78.5319 21.128C78.2439 20.84 78.0999 20.448 78.0999 19.952C78.0999 19.872 78.1159 19.752 78.1479 19.592C78.1799 19.432 78.2119 19.312 78.2439 19.232C78.5159 19.28 78.7719 19.312 79.0119 19.328C79.2519 19.328 79.5639 19.328 79.9479 19.328C80.7639 19.328 81.5239 19.304 82.2279 19.256C82.9479 19.208 83.5959 19.152 84.1719 19.088C84.7479 19.024 85.2439 18.968 85.6599 18.92C86.0759 18.872 86.3959 18.848 86.6199 18.848C86.9239 18.848 87.1879 19.032 87.4119 19.4C87.6519 19.768 87.8279 20.296 87.9399 20.984C87.5399 20.936 87.2119 20.904 86.9559 20.888C86.6999 20.872 86.4759 20.864 86.2839 20.864C85.5959 20.864 84.9559 20.904 84.3639 20.984C83.7719 21.048 83.2119 21.12 82.6839 21.2C82.1559 21.28 81.6519 21.36 81.1719 21.44C80.6919 21.504 80.2119 21.536 79.7319 21.536ZM105.541 9.824C105.589 10.096 105.621 10.288 105.637 10.4C105.669 10.496 105.685 10.632 105.685 10.808C105.685 11.336 105.565 11.832 105.325 12.296C105.101 12.744 104.789 13.064 104.389 13.256C104.069 12.824 103.677 12.456 103.213 12.152C102.749 11.832 102.237 11.576 101.677 11.384C101.133 11.176 100.565 11.024 99.9728 10.928C99.3808 10.832 98.8048 10.784 98.2448 10.784C97.6848 10.784 97.1568 10.832 96.6608 10.928C96.1808 11.008 95.7488 11.128 95.3648 11.288C94.9968 11.432 94.7008 11.616 94.4768 11.84C94.2688 12.064 94.1648 12.32 94.1648 12.608C94.2128 12.96 94.4288 13.32 94.8128 13.688C95.1968 14.04 95.6688 14.392 96.2288 14.744C96.7888 15.08 97.4048 15.416 98.0768 15.752C98.7648 16.088 99.4368 16.408 100.093 16.712C100.909 17.096 101.613 17.456 102.205 17.792C102.797 18.112 103.285 18.472 103.669 18.872C104.053 19.256 104.341 19.696 104.533 20.192C104.725 20.688 104.821 21.288 104.821 21.992C104.821 22.808 104.685 23.576 104.413 24.296C104.141 25 103.741 25.616 103.213 26.144C102.701 26.672 102.077 27.08 101.341 27.368C100.605 27.672 99.7808 27.824 98.8688 27.824C97.9728 27.824 97.0048 27.688 95.9648 27.416C94.9248 27.144 93.9488 26.768 93.0368 26.288C92.1408 25.824 91.3888 25.288 90.7808 24.68C90.1888 24.056 89.8928 23.4 89.8928 22.712C89.8928 22.392 89.9808 21.984 90.1568 21.488C90.3488 20.992 90.6848 20.472 91.1648 19.928C91.2128 20.408 91.4688 20.976 91.9328 21.632C92.4128 22.288 93.1248 22.896 94.0688 23.456C94.9488 23.968 95.8528 24.344 96.7808 24.584C97.7248 24.808 98.6048 24.92 99.4208 24.92C100.317 24.92 101.045 24.808 101.605 24.584C102.165 24.36 102.605 24.096 102.925 23.792C103.245 23.472 103.469 23.152 103.597 22.832C103.725 22.512 103.797 22.256 103.813 22.064C103.797 21.744 103.645 21.44 103.357 21.152C103.085 20.848 102.709 20.56 102.229 20.288C101.765 20 101.221 19.712 100.597 19.424C99.9728 19.136 99.3248 18.848 98.6528 18.56C97.6448 18.112 96.7728 17.696 96.0368 17.312C95.3168 16.912 94.7168 16.512 94.2368 16.112C93.7728 15.696 93.4288 15.264 93.2048 14.816C92.9968 14.368 92.8928 13.856 92.8928 13.28C92.8928 12.384 93.1648 11.536 93.7088 10.736C94.2528 9.936 95.0368 9.328 96.0608 8.912C96.5728 8.688 97.1168 8.528 97.6928 8.432C98.2848 8.336 98.8608 8.288 99.4208 8.288C100.477 8.288 101.509 8.432 102.517 8.72C103.525 9.008 104.533 9.376 105.541 9.824ZM107.455 16.808C107.375 16.712 107.303 16.512 107.239 16.208C107.175 15.888 107.143 15.616 107.143 15.392C107.559 15.424 107.959 15.456 108.343 15.488C108.727 15.504 109.079 15.52 109.399 15.536C109.639 15.056 109.895 14.584 110.167 14.12C110.455 13.64 110.727 13.208 110.983 12.824C111.255 12.424 111.503 12.088 111.727 11.816C111.967 11.544 112.151 11.368 112.279 11.288C112.439 11.288 112.639 11.32 112.879 11.384C113.135 11.432 113.391 11.504 113.647 11.6C113.903 11.68 114.135 11.768 114.343 11.864C114.551 11.96 114.695 12.056 114.775 12.152C114.295 12.76 113.879 13.328 113.527 13.856C113.191 14.368 112.823 14.96 112.423 15.632C112.743 15.632 113.063 15.624 113.383 15.608C113.719 15.592 114.055 15.568 114.391 15.536C114.471 15.616 114.535 15.72 114.583 15.848C114.631 15.96 114.655 16.08 114.655 16.208C113.871 16.496 112.919 16.656 111.799 16.688C111.399 17.456 111.039 18.224 110.719 18.992C110.415 19.744 110.151 20.472 109.927 21.176C109.719 21.88 109.551 22.544 109.423 23.168C109.311 23.792 109.255 24.352 109.255 24.848C109.255 25.552 109.519 25.944 110.047 26.024C110.527 25.96 110.983 25.84 111.415 25.664C111.847 25.488 112.231 25.264 112.567 24.992C112.663 25.136 112.719 25.256 112.735 25.352C112.639 25.496 112.471 25.664 112.231 25.856C112.007 26.048 111.759 26.232 111.487 26.408C111.215 26.6 110.951 26.76 110.695 26.888C110.439 27.016 110.247 27.088 110.119 27.104C109.719 27.088 109.319 27 108.919 26.84C108.519 26.68 108.151 26.48 107.815 26.24C107.495 26 107.231 25.736 107.023 25.448C106.815 25.144 106.711 24.848 106.711 24.56C106.711 24.176 106.759 23.696 106.855 23.12C106.967 22.528 107.119 21.888 107.311 21.2C107.503 20.512 107.727 19.792 107.983 19.04C108.239 18.288 108.519 17.544 108.823 16.808H107.455ZM117.308 26.84C116.396 26.744 115.668 26.344 115.124 25.64C114.58 24.936 114.308 24.04 114.308 22.952C114.308 22.312 114.404 21.648 114.596 20.96C114.788 20.272 115.06 19.608 115.412 18.968C115.764 18.312 116.18 17.696 116.66 17.12C117.14 16.544 117.66 16.048 118.22 15.632C119.1 14.976 119.924 14.648 120.692 14.648C121.204 14.92 121.708 15.488 122.204 16.352C122.284 16.352 122.356 16.352 122.42 16.352C122.484 16.336 122.556 16.328 122.636 16.328C123.484 16.328 123.908 17.08 123.908 18.584C123.908 19.592 123.74 20.552 123.404 21.464C123.084 22.36 122.628 23.176 122.036 23.912C121.46 24.648 120.764 25.272 119.948 25.784C119.148 26.28 118.268 26.632 117.308 26.84ZM118.532 19.28C118.26 19.648 118.004 20.048 117.764 20.48C117.524 20.912 117.316 21.352 117.14 21.8C116.964 22.232 116.828 22.656 116.732 23.072C116.636 23.472 116.588 23.832 116.588 24.152C116.588 24.536 116.652 24.904 116.78 25.256C116.908 25.608 117.052 25.808 117.212 25.856C117.932 25.696 118.588 25.4 119.18 24.968C119.788 24.52 120.308 23.968 120.74 23.312C121.188 22.656 121.532 21.912 121.772 21.08C122.028 20.248 122.156 19.36 122.156 18.416C122.156 18 122.132 17.672 122.084 17.432C122.036 17.192 121.956 16.984 121.844 16.808C121.14 17.016 120.508 17.352 119.948 17.816C119.404 18.28 118.932 18.768 118.532 19.28ZM124.494 25.52C124.574 25.056 124.71 24.448 124.902 23.696C125.11 22.928 125.35 22.12 125.622 21.272C125.894 20.408 126.182 19.544 126.486 18.68C126.79 17.816 127.086 17.04 127.374 16.352C127.582 15.856 127.766 15.472 127.926 15.2C128.086 14.912 128.262 14.672 128.454 14.48C128.678 14.512 128.91 14.568 129.15 14.648C129.39 14.728 129.622 14.824 129.846 14.936C130.07 15.048 130.27 15.168 130.446 15.296C130.622 15.408 130.758 15.52 130.854 15.632C130.422 16.144 130.038 16.728 129.702 17.384C129.382 18.04 129.054 18.88 128.718 19.904C129.582 19.136 130.342 18.4 130.998 17.696C131.67 16.992 132.294 16.208 132.87 15.344C132.966 15.264 133.134 15.224 133.374 15.224C133.598 15.224 133.814 15.264 134.022 15.344C134.23 15.408 134.374 15.504 134.454 15.632C134.166 16.4 134.022 17.16 134.022 17.912C134.022 18.616 134.126 19.144 134.334 19.496C134.318 19.592 134.206 19.776 133.998 20.048C133.806 20.32 133.59 20.576 133.35 20.816C132.918 20.592 132.534 20.288 132.198 19.904C131.862 19.504 131.614 19.072 131.454 18.608C130.702 19.136 130.062 19.656 129.534 20.168C129.006 20.664 128.55 21.224 128.166 21.848C127.798 22.456 127.478 23.16 127.206 23.96C126.95 24.76 126.702 25.712 126.462 26.816C126.318 26.8 126.142 26.744 125.934 26.648C125.742 26.568 125.542 26.464 125.334 26.336C125.142 26.208 124.966 26.072 124.806 25.928C124.646 25.784 124.542 25.648 124.494 25.52ZM143.342 16.064C143.278 17.056 143.102 17.912 142.814 18.632C142.526 19.336 142.11 19.96 141.566 20.504C141.038 21.032 140.39 21.512 139.622 21.944C138.854 22.376 137.958 22.792 136.934 23.192C136.934 23.288 136.926 23.392 136.91 23.504C136.91 23.6 136.91 23.704 136.91 23.816C136.91 24.024 136.926 24.24 136.958 24.464C136.99 24.688 137.046 24.896 137.126 25.088C137.206 25.28 137.318 25.44 137.462 25.568C137.606 25.68 137.79 25.736 138.014 25.736C138.446 25.736 138.87 25.64 139.286 25.448C139.702 25.256 140.094 25.024 140.462 24.752C140.846 24.464 141.198 24.16 141.518 23.84C141.854 23.504 142.15 23.2 142.406 22.928C142.566 23.072 142.702 23.208 142.814 23.336C142.094 24.296 141.302 25.096 140.438 25.736C139.59 26.36 138.782 26.76 138.014 26.936C136.91 26.808 136.046 26.408 135.422 25.736C134.814 25.048 134.51 24.224 134.51 23.264C134.51 22.608 134.598 21.944 134.774 21.272C134.966 20.584 135.222 19.928 135.542 19.304C135.878 18.664 136.262 18.064 136.694 17.504C137.142 16.944 137.614 16.456 138.11 16.04C138.622 15.624 139.142 15.296 139.67 15.056C140.214 14.816 140.75 14.696 141.278 14.696C142.014 14.792 142.702 15.248 143.342 16.064ZM141.686 16.856C141.254 16.92 140.806 17.096 140.342 17.384C139.878 17.672 139.438 18.056 139.022 18.536C138.622 19.016 138.254 19.576 137.918 20.216C137.582 20.856 137.318 21.544 137.126 22.28C138.406 21.64 139.47 20.856 140.318 19.928C141.166 18.984 141.622 17.96 141.686 16.856Z" fill="#282E38"/>
</svg>
