<svg width="120" height="29" viewBox="0 0 120 29" fill="none" xmlns="http://www.w3.org/2000/svg">
<path id="Ashu-PAY" d="M4.52557 23H0.571023L6.59659 5.54545H11.3523L17.3693 23H13.4148L9.04261 9.53409H8.90625L4.52557 23ZM4.27841 16.1392H13.6193V19.0199H4.27841V16.1392ZM29.9893 13.642L26.6655 13.8466C26.6087 13.5625 26.4865 13.3068 26.299 13.0795C26.1115 12.8466 25.8643 12.6619 25.5575 12.5256C25.2564 12.3835 24.8956 12.3125 24.4751 12.3125C23.9126 12.3125 23.4382 12.4318 23.0518 12.6705C22.6655 12.9034 22.4723 13.2159 22.4723 13.608C22.4723 13.9205 22.5973 14.1847 22.8473 14.4006C23.0973 14.6165 23.5263 14.7898 24.1342 14.9205L26.5036 15.3977C27.7763 15.6591 28.7251 16.0795 29.3501 16.6591C29.9751 17.2386 30.2876 18 30.2876 18.9432C30.2876 19.8011 30.0348 20.554 29.5291 21.2017C29.0291 21.8494 28.3416 22.3551 27.4666 22.7188C26.5973 23.0767 25.5945 23.2557 24.4581 23.2557C22.7251 23.2557 21.3445 22.8949 20.3161 22.1733C19.2933 21.446 18.6939 20.4574 18.5178 19.2074L22.0888 19.0199C22.1967 19.5483 22.4581 19.9517 22.8729 20.2301C23.2876 20.5028 23.8189 20.6392 24.4666 20.6392C25.103 20.6392 25.6143 20.517 26.0007 20.2727C26.3928 20.0227 26.5916 19.7017 26.5973 19.3097C26.5916 18.9801 26.4524 18.7102 26.1797 18.5C25.907 18.2841 25.4865 18.1193 24.9183 18.0057L22.6513 17.554C21.3729 17.2983 20.4212 16.8551 19.7962 16.2244C19.1768 15.5937 18.8672 14.7898 18.8672 13.8125C18.8672 12.9716 19.0945 12.2472 19.549 11.6392C20.0092 11.0312 20.6541 10.5625 21.4837 10.233C22.3189 9.90341 23.2962 9.73864 24.4155 9.73864C26.0689 9.73864 27.37 10.0881 28.3189 10.7869C29.2734 11.4858 29.8303 12.4375 29.9893 13.642ZM36.2045 15.4318V23H32.5739V5.54545H36.1023V12.2188H36.2557C36.5511 11.446 37.0284 10.8409 37.6875 10.4034C38.3466 9.96023 39.1733 9.73864 40.1676 9.73864C41.0767 9.73864 41.8693 9.9375 42.5455 10.3352C43.2273 10.7273 43.7557 11.2926 44.1307 12.0312C44.5114 12.7642 44.6989 13.642 44.6932 14.6648V23H41.0625V15.3125C41.0682 14.5057 40.8636 13.8778 40.4489 13.429C40.0398 12.9801 39.4659 12.7557 38.7273 12.7557C38.233 12.7557 37.7955 12.8608 37.4148 13.071C37.0398 13.2812 36.7443 13.5881 36.5284 13.9915C36.3182 14.3892 36.2102 14.8693 36.2045 15.4318ZM55.9453 17.4261V9.90909H59.576V23H56.0902V20.6222H55.9538C55.6584 21.3892 55.1669 22.0057 54.4794 22.4716C53.7976 22.9375 52.9652 23.1705 51.9822 23.1705C51.1072 23.1705 50.3374 22.9716 49.6726 22.5739C49.0078 22.1761 48.4879 21.6108 48.1129 20.8778C47.7436 20.1449 47.5561 19.267 47.5504 18.2443V9.90909H51.1811V17.5966C51.1868 18.3693 51.3942 18.9801 51.8033 19.429C52.2124 19.8778 52.7607 20.1023 53.4482 20.1023C53.8857 20.1023 54.2947 20.0028 54.6754 19.804C55.0561 19.5994 55.3629 19.2983 55.5959 18.9006C55.8345 18.5028 55.951 18.0114 55.9453 17.4261ZM70.6364 14.392V17.2727H62.6761V14.392H70.6364ZM73.7983 23V5.54545H80.6847C82.0085 5.54545 83.1364 5.7983 84.0682 6.30398C85 6.80398 85.7102 7.5 86.1989 8.39204C86.6932 9.27841 86.9403 10.3011 86.9403 11.4602C86.9403 12.6193 86.6903 13.642 86.1903 14.5284C85.6903 15.4148 84.9659 16.1051 84.017 16.5994C83.0739 17.0937 81.9318 17.3409 80.5909 17.3409H76.2017V14.3835H79.9943C80.7045 14.3835 81.2898 14.2614 81.75 14.017C82.2159 13.767 82.5625 13.4233 82.7898 12.9858C83.0227 12.5426 83.1392 12.0341 83.1392 11.4602C83.1392 10.8807 83.0227 10.375 82.7898 9.94318C82.5625 9.50568 82.2159 9.16761 81.75 8.92898C81.2841 8.68466 80.6932 8.5625 79.9773 8.5625H77.4886V23H73.7983ZM90.3303 23H86.3757L92.4013 5.54545H97.157L103.174 23H99.2195L94.8473 9.53409H94.7109L90.3303 23ZM90.0831 16.1392H99.424V19.0199H90.0831V16.1392ZM102.471 5.54545H106.604L110.585 13.0625H110.755L114.735 5.54545H118.869L112.502 16.8295V23H108.837V16.8295L102.471 5.54545Z" fill="white"/>
</svg>
