<svg width="183" height="29" viewBox="0 0 183 29" fill="none" xmlns="http://www.w3.org/2000/svg">
<g id="ColorGenerator">
<path d="M16.9176 11.6562H13.1847C13.1165 11.1733 12.9773 10.7443 12.767 10.3693C12.5568 9.98864 12.2869 9.66477 11.9574 9.39773C11.6278 9.13068 11.2472 8.92614 10.8153 8.78409C10.3892 8.64205 9.92614 8.57102 9.42614 8.57102C8.52273 8.57102 7.7358 8.79545 7.06534 9.24432C6.39489 9.6875 5.875 10.3352 5.50568 11.1875C5.13636 12.0341 4.9517 13.0625 4.9517 14.2727C4.9517 15.517 5.13636 16.5625 5.50568 17.4091C5.88068 18.2557 6.40341 18.8949 7.07386 19.3267C7.74432 19.7585 8.51989 19.9744 9.40057 19.9744C9.89489 19.9744 10.3523 19.9091 10.7727 19.7784C11.1989 19.6477 11.5767 19.4574 11.9062 19.2074C12.2358 18.9517 12.5085 18.642 12.7244 18.2784C12.946 17.9148 13.0994 17.5 13.1847 17.0341L16.9176 17.0511C16.821 17.8523 16.5795 18.625 16.1932 19.3693C15.8125 20.108 15.2983 20.7699 14.6506 21.3551C14.0085 21.9347 13.2415 22.3949 12.3494 22.7358C11.4631 23.071 10.4602 23.2386 9.34091 23.2386C7.78409 23.2386 6.39205 22.8864 5.16477 22.1818C3.94318 21.4773 2.97727 20.4574 2.26705 19.1222C1.5625 17.7869 1.21023 16.1705 1.21023 14.2727C1.21023 12.3693 1.56818 10.75 2.28409 9.41477C3 8.07955 3.97159 7.0625 5.19886 6.36364C6.42614 5.65909 7.80682 5.30682 9.34091 5.30682C10.3523 5.30682 11.2898 5.44886 12.1534 5.73295C13.0227 6.01705 13.7926 6.43182 14.4631 6.97727C15.1335 7.51704 15.679 8.17898 16.0994 8.96307C16.5256 9.74716 16.7983 10.6449 16.9176 11.6562ZM25.4105 23.2557C24.0866 23.2557 22.9418 22.9744 21.9759 22.4119C21.0156 21.8437 20.2741 21.054 19.7514 20.0426C19.2287 19.0256 18.9673 17.8466 18.9673 16.5057C18.9673 15.1534 19.2287 13.9716 19.7514 12.9602C20.2741 11.9432 21.0156 11.1534 21.9759 10.5909C22.9418 10.0227 24.0866 9.73864 25.4105 9.73864C26.7344 9.73864 27.8764 10.0227 28.8366 10.5909C29.8026 11.1534 30.5469 11.9432 31.0696 12.9602C31.5923 13.9716 31.8537 15.1534 31.8537 16.5057C31.8537 17.8466 31.5923 19.0256 31.0696 20.0426C30.5469 21.054 29.8026 21.8437 28.8366 22.4119C27.8764 22.9744 26.7344 23.2557 25.4105 23.2557ZM25.4276 20.4432C26.0298 20.4432 26.5327 20.2727 26.9361 19.9318C27.3395 19.5852 27.6435 19.1136 27.848 18.517C28.0582 17.9205 28.1634 17.2415 28.1634 16.4801C28.1634 15.7188 28.0582 15.0398 27.848 14.4432C27.6435 13.8466 27.3395 13.375 26.9361 13.0284C26.5327 12.6818 26.0298 12.5085 25.4276 12.5085C24.8196 12.5085 24.3082 12.6818 23.8935 13.0284C23.4844 13.375 23.1747 13.8466 22.9645 14.4432C22.7599 15.0398 22.6577 15.7188 22.6577 16.4801C22.6577 17.2415 22.7599 17.9205 22.9645 18.517C23.1747 19.1136 23.4844 19.5852 23.8935 19.9318C24.3082 20.2727 24.8196 20.4432 25.4276 20.4432ZM37.8452 5.54545V23H34.2145V5.54545H37.8452ZM46.6683 23.2557C45.3445 23.2557 44.1996 22.9744 43.2337 22.4119C42.2734 21.8437 41.532 21.054 41.0092 20.0426C40.4865 19.0256 40.2251 17.8466 40.2251 16.5057C40.2251 15.1534 40.4865 13.9716 41.0092 12.9602C41.532 11.9432 42.2734 11.1534 43.2337 10.5909C44.1996 10.0227 45.3445 9.73864 46.6683 9.73864C47.9922 9.73864 49.1342 10.0227 50.0945 10.5909C51.0604 11.1534 51.8047 11.9432 52.3274 12.9602C52.8501 13.9716 53.1115 15.1534 53.1115 16.5057C53.1115 17.8466 52.8501 19.0256 52.3274 20.0426C51.8047 21.054 51.0604 21.8437 50.0945 22.4119C49.1342 22.9744 47.9922 23.2557 46.6683 23.2557ZM46.6854 20.4432C47.2876 20.4432 47.7905 20.2727 48.1939 19.9318C48.5973 19.5852 48.9013 19.1136 49.1058 18.517C49.3161 17.9205 49.4212 17.2415 49.4212 16.4801C49.4212 15.7188 49.3161 15.0398 49.1058 14.4432C48.9013 13.8466 48.5973 13.375 48.1939 13.0284C47.7905 12.6818 47.2876 12.5085 46.6854 12.5085C46.0774 12.5085 45.5661 12.6818 45.1513 13.0284C44.7422 13.375 44.4325 13.8466 44.2223 14.4432C44.0178 15.0398 43.9155 15.7188 43.9155 16.4801C43.9155 17.2415 44.0178 17.9205 44.2223 18.517C44.4325 19.1136 44.7422 19.5852 45.1513 19.9318C45.5661 20.2727 46.0774 20.4432 46.6854 20.4432ZM55.4723 23V9.90909H58.9922V12.1932H59.1286C59.3672 11.3807 59.7678 10.767 60.3303 10.3523C60.8928 9.93182 61.5405 9.72159 62.2734 9.72159C62.4553 9.72159 62.6513 9.73295 62.8615 9.75568C63.0717 9.77841 63.2564 9.80966 63.4155 9.84943V13.071C63.245 13.0199 63.0092 12.9744 62.7081 12.9347C62.407 12.8949 62.1314 12.875 61.8814 12.875C61.3473 12.875 60.87 12.9915 60.4496 13.2244C60.0348 13.4517 59.7053 13.7699 59.4609 14.179C59.2223 14.5881 59.103 15.0597 59.103 15.5938V23H55.4723Z" fill="#0F172A"/>
<path d="M76.9347 11.1875C76.8153 10.7727 76.6477 10.4062 76.4318 10.0881C76.2159 9.7642 75.9517 9.49148 75.6392 9.26989C75.3324 9.04261 74.9801 8.86932 74.5824 8.75C74.1903 8.63068 73.7557 8.57102 73.2784 8.57102C72.3864 8.57102 71.6023 8.79261 70.9261 9.23579C70.2557 9.67898 69.733 10.3239 69.358 11.1705C68.983 12.0114 68.7955 13.0398 68.7955 14.2557C68.7955 15.4716 68.9801 16.5057 69.3494 17.358C69.7188 18.2102 70.2415 18.8608 70.9176 19.3097C71.5938 19.7528 72.392 19.9744 73.3125 19.9744C74.1477 19.9744 74.8608 19.8267 75.4517 19.5312C76.0483 19.2301 76.5028 18.8068 76.8153 18.2614C77.1335 17.7159 77.2926 17.071 77.2926 16.3267L78.0426 16.4375H73.5426V13.6591H80.8466V15.858C80.8466 17.392 80.5227 18.7102 79.875 19.8125C79.2273 20.9091 78.3352 21.7557 77.1989 22.3523C76.0625 22.9432 74.7614 23.2386 73.2955 23.2386C71.6591 23.2386 70.2216 22.8778 68.983 22.1562C67.7443 21.429 66.7784 20.3977 66.0852 19.0625C65.3977 17.7216 65.054 16.1307 65.054 14.2898C65.054 12.875 65.2585 11.6136 65.6676 10.5057C66.0824 9.39205 66.6619 8.44886 67.4062 7.67614C68.1506 6.90341 69.017 6.31534 70.0057 5.91193C70.9943 5.50852 72.0653 5.30682 73.2188 5.30682C74.2074 5.30682 75.1278 5.4517 75.9801 5.74148C76.8324 6.02557 77.5881 6.42898 78.2472 6.9517C78.9119 7.47443 79.4545 8.09659 79.875 8.81818C80.2955 9.53409 80.5653 10.3239 80.6847 11.1875H76.9347ZM89.5163 23.2557C88.1697 23.2557 87.0107 22.983 86.0391 22.4375C85.0732 21.8864 84.3288 21.108 83.8061 20.1023C83.2834 19.0909 83.022 17.8949 83.022 16.5142C83.022 15.1676 83.2834 13.9858 83.8061 12.9688C84.3288 11.9517 85.0646 11.1591 86.0135 10.5909C86.968 10.0227 88.0874 9.73864 89.3714 9.73864C90.2351 9.73864 91.0391 9.87784 91.7834 10.1562C92.5334 10.429 93.1868 10.8409 93.7436 11.392C94.3061 11.9432 94.7436 12.6364 95.0561 13.4716C95.3686 14.3011 95.5249 15.2727 95.5249 16.3864V17.3835H84.4709V15.1335H92.1072C92.1072 14.6108 91.9936 14.1477 91.7663 13.7443C91.5391 13.3409 91.2237 13.0256 90.8203 12.7983C90.4226 12.5653 89.9595 12.4489 89.4311 12.4489C88.88 12.4489 88.3913 12.5767 87.9652 12.8324C87.5447 13.0824 87.2152 13.4205 86.9766 13.8466C86.7379 14.267 86.6158 14.7358 86.6101 15.2528V17.392C86.6101 18.0398 86.7294 18.5994 86.968 19.071C87.2124 19.5426 87.5561 19.9062 87.9993 20.1619C88.4425 20.4176 88.968 20.5455 89.576 20.5455C89.9794 20.5455 90.3487 20.4886 90.6839 20.375C91.0192 20.2614 91.3061 20.0909 91.5447 19.8636C91.7834 19.6364 91.9652 19.358 92.0902 19.0284L95.4482 19.25C95.2777 20.0568 94.9283 20.7614 94.3999 21.3636C93.8771 21.9602 93.201 22.4261 92.3714 22.7614C91.5476 23.0909 90.5959 23.2557 89.5163 23.2557ZM101.525 15.4318V23H97.8942V9.90909H101.354V12.2188H101.508C101.798 11.4574 102.283 10.8551 102.965 10.4119C103.647 9.96307 104.474 9.73864 105.445 9.73864C106.354 9.73864 107.147 9.9375 107.823 10.3352C108.499 10.733 109.025 11.3011 109.4 12.0398C109.775 12.7727 109.962 13.6477 109.962 14.6648V23H106.332V15.3125C106.337 14.5114 106.133 13.8864 105.718 13.4375C105.303 12.983 104.732 12.7557 104.005 12.7557C103.516 12.7557 103.085 12.8608 102.71 13.071C102.34 13.2812 102.05 13.5881 101.84 13.9915C101.636 14.3892 101.531 14.8693 101.525 15.4318ZM118.79 23.2557C117.443 23.2557 116.284 22.983 115.312 22.4375C114.347 21.8864 113.602 21.108 113.08 20.1023C112.557 19.0909 112.295 17.8949 112.295 16.5142C112.295 15.1676 112.557 13.9858 113.08 12.9688C113.602 11.9517 114.338 11.1591 115.287 10.5909C116.241 10.0227 117.361 9.73864 118.645 9.73864C119.509 9.73864 120.313 9.87784 121.057 10.1562C121.807 10.429 122.46 10.8409 123.017 11.392C123.58 11.9432 124.017 12.6364 124.33 13.4716C124.642 14.3011 124.798 15.2727 124.798 16.3864V17.3835H113.744V15.1335H121.381C121.381 14.6108 121.267 14.1477 121.04 13.7443C120.813 13.3409 120.497 13.0256 120.094 12.7983C119.696 12.5653 119.233 12.4489 118.705 12.4489C118.153 12.4489 117.665 12.5767 117.239 12.8324C116.818 13.0824 116.489 13.4205 116.25 13.8466C116.011 14.267 115.889 14.7358 115.884 15.2528V17.392C115.884 18.0398 116.003 18.5994 116.241 19.071C116.486 19.5426 116.83 19.9062 117.273 20.1619C117.716 20.4176 118.241 20.5455 118.849 20.5455C119.253 20.5455 119.622 20.4886 119.957 20.375C120.293 20.2614 120.58 20.0909 120.818 19.8636C121.057 19.6364 121.239 19.358 121.364 19.0284L124.722 19.25C124.551 20.0568 124.202 20.7614 123.673 21.3636C123.151 21.9602 122.474 22.4261 121.645 22.7614C120.821 23.0909 119.869 23.2557 118.79 23.2557ZM127.168 23V9.90909H130.688V12.1932H130.824C131.063 11.3807 131.463 10.767 132.026 10.3523C132.588 9.93182 133.236 9.72159 133.969 9.72159C134.151 9.72159 134.347 9.73295 134.557 9.75568C134.767 9.77841 134.952 9.80966 135.111 9.84943V13.071C134.94 13.0199 134.705 12.9744 134.403 12.9347C134.102 12.8949 133.827 12.875 133.577 12.875C133.043 12.875 132.565 12.9915 132.145 13.2244C131.73 13.4517 131.401 13.7699 131.156 14.179C130.918 14.5881 130.798 15.0597 130.798 15.5938V23H127.168ZM140.346 23.2472C139.511 23.2472 138.766 23.1023 138.113 22.8125C137.46 22.517 136.942 22.0824 136.562 21.5085C136.187 20.929 135.999 20.2074 135.999 19.3438C135.999 18.6165 136.133 18.0057 136.4 17.5114C136.667 17.017 137.031 16.6193 137.491 16.3182C137.951 16.017 138.474 15.7898 139.059 15.6364C139.65 15.483 140.269 15.375 140.917 15.3125C141.678 15.233 142.292 15.1591 142.758 15.0909C143.224 15.017 143.562 14.9091 143.772 14.767C143.982 14.625 144.087 14.4148 144.087 14.1364V14.0852C144.087 13.5455 143.917 13.1278 143.576 12.8324C143.241 12.5369 142.763 12.3892 142.144 12.3892C141.491 12.3892 140.971 12.5341 140.585 12.8239C140.198 13.108 139.942 13.4659 139.817 13.8977L136.46 13.625C136.63 12.8295 136.965 12.142 137.465 11.5625C137.965 10.9773 138.61 10.5284 139.4 10.2159C140.195 9.89773 141.116 9.73864 142.161 9.73864C142.888 9.73864 143.585 9.82386 144.249 9.99432C144.92 10.1648 145.513 10.429 146.031 10.7869C146.553 11.1449 146.965 11.6051 147.266 12.1676C147.567 12.7244 147.718 13.392 147.718 14.1705V23H144.275V21.1847H144.173C143.962 21.5938 143.681 21.9545 143.329 22.267C142.977 22.5739 142.553 22.8153 142.059 22.9915C141.565 23.1619 140.994 23.2472 140.346 23.2472ZM141.386 20.7415C141.92 20.7415 142.391 20.6364 142.8 20.4261C143.21 20.2102 143.531 19.9205 143.763 19.5568C143.996 19.1932 144.113 18.7812 144.113 18.321V16.9318C143.999 17.0057 143.843 17.0739 143.644 17.1364C143.451 17.1932 143.232 17.2472 142.988 17.2983C142.744 17.3437 142.499 17.3864 142.255 17.4261C142.011 17.4602 141.789 17.4915 141.59 17.5199C141.164 17.5824 140.792 17.6818 140.474 17.8182C140.156 17.9545 139.908 18.1392 139.732 18.3722C139.556 18.5994 139.468 18.8835 139.468 19.2244C139.468 19.7188 139.647 20.0966 140.005 20.358C140.369 20.6136 140.829 20.7415 141.386 20.7415ZM157.498 9.90909V12.6364H149.614V9.90909H157.498ZM151.404 6.77273H155.035V18.9773C155.035 19.3125 155.086 19.5739 155.188 19.7614C155.29 19.9432 155.433 20.071 155.614 20.1449C155.802 20.2187 156.018 20.2557 156.262 20.2557C156.433 20.2557 156.603 20.2415 156.773 20.2131C156.944 20.179 157.075 20.1534 157.165 20.1364L157.737 22.8381C157.555 22.8949 157.299 22.9602 156.969 23.0341C156.64 23.1136 156.239 23.1619 155.768 23.179C154.893 23.2131 154.126 23.0966 153.467 22.8295C152.813 22.5625 152.305 22.1477 151.941 21.5852C151.577 21.0227 151.398 20.3125 151.404 19.4545V6.77273ZM165.637 23.2557C164.313 23.2557 163.168 22.9744 162.202 22.4119C161.242 21.8437 160.501 21.054 159.978 20.0426C159.455 19.0256 159.194 17.8466 159.194 16.5057C159.194 15.1534 159.455 13.9716 159.978 12.9602C160.501 11.9432 161.242 11.1534 162.202 10.5909C163.168 10.0227 164.313 9.73864 165.637 9.73864C166.961 9.73864 168.103 10.0227 169.063 10.5909C170.029 11.1534 170.773 11.9432 171.296 12.9602C171.819 13.9716 172.08 15.1534 172.08 16.5057C172.08 17.8466 171.819 19.0256 171.296 20.0426C170.773 21.054 170.029 21.8437 169.063 22.4119C168.103 22.9744 166.961 23.2557 165.637 23.2557ZM165.654 20.4432C166.256 20.4432 166.759 20.2727 167.163 19.9318C167.566 19.5852 167.87 19.1136 168.075 18.517C168.285 17.9205 168.39 17.2415 168.39 16.4801C168.39 15.7188 168.285 15.0398 168.075 14.4432C167.87 13.8466 167.566 13.375 167.163 13.0284C166.759 12.6818 166.256 12.5085 165.654 12.5085C165.046 12.5085 164.535 12.6818 164.12 13.0284C163.711 13.375 163.401 13.8466 163.191 14.4432C162.987 15.0398 162.884 15.7188 162.884 16.4801C162.884 17.2415 162.987 17.9205 163.191 18.517C163.401 19.1136 163.711 19.5852 164.12 19.9318C164.535 20.2727 165.046 20.4432 165.654 20.4432ZM174.441 23V9.90909H177.961V12.1932H178.097C178.336 11.3807 178.737 10.767 179.299 10.3523C179.862 9.93182 180.509 9.72159 181.242 9.72159C181.424 9.72159 181.62 9.73295 181.83 9.75568C182.04 9.77841 182.225 9.80966 182.384 9.84943V13.071C182.214 13.0199 181.978 12.9744 181.677 12.9347C181.376 12.8949 181.1 12.875 180.85 12.875C180.316 12.875 179.839 12.9915 179.418 13.2244C179.004 13.4517 178.674 13.7699 178.43 14.179C178.191 14.5881 178.072 15.0597 178.072 15.5938V23H174.441Z" fill="#6622CC"/>
</g>
</svg>
